HIERARCHY
ROOT joint_Root
{
	OFFSET 0.0 0.0 0.0
	CHANNELS 6 Xposition Yposition Zposition Zrotation Xrotation Yrotation 
	JOINT Hips
	{
		OFFSET 4.5925 91.4895 -427.239
		CHANNELS 6 Xposition Yposition Zposition Zrotation Xrotation Yrotation 
		JOINT Spine
		{
			OFFSET 15.7357 0.0 0.0
			CHANNELS 6 Xposition Yposition Zposition Zrotation Xrotation Yrotation 
			JOINT Chest
			{
				OFFSET 8.98455 -0.406207 0.0
				CHANNELS 6 Xposition Yposition Zposition Zrotation Xrotation Yrotation 
				JOINT Neck
				{
					OFFSET 16.3773 0.0 0.0
					CHANNELS 6 Xposition Yposition Zposition Zrotation Xrotation Yrotation 
					JOINT Head
					{
						OFFSET 6.45672 0.0 0.0
						CHANNELS 6 Xposition Yposition Zposition Zrotation Xrotation Yrotation 
						End Site
						{
							OFFSET 0.0 0.0 0.0
						}
					}
				}
				JOINT Shoulder_L
				{
					OFFSET 12.9942 -0.242716 4.98039
					CHANNELS 6 Xposition Yposition Zposition Zrotation Xrotation Yrotation 
					JOINT UpperArm_L
					{
						OFFSET 5.34809 0.0 0.0
						CHANNELS 6 Xposition Yposition Zposition Zrotation Xrotation Yrotation 
						JOINT LowerArm_L
						{
							OFFSET 24.3286 1.87007e-05 0.0
							CHANNELS 6 Xposition Yposition Zposition Zrotation Xrotation Yrotation 
							JOINT Hand_L
							{
								OFFSET 22.2916 0.0 0.0
								CHANNELS 6 Xposition Yposition Zposition Zrotation Xrotation Yrotation 
								End Site
								{
									OFFSET 0.0 0.0 0.0
								}
							}
						}
					}
				}
				JOINT Shoulder_R
				{
					OFFSET 12.9945 -0.242716 -4.98039
					CHANNELS 6 Xposition Yposition Zposition Zrotation Xrotation Yrotation 
					JOINT UpperArm_R
					{
						OFFSET -5.34813 0.0 0.0
						CHANNELS 6 Xposition Yposition Zposition Zrotation Xrotation Yrotation 
						JOINT LowerArm_R
						{
							OFFSET -24.3289 0.000322201 0.0
							CHANNELS 6 Xposition Yposition Zposition Zrotation Xrotation Yrotation 
							JOINT Hand_R
							{
								OFFSET -22.2915 -0.000108084 0.0
								CHANNELS 6 Xposition Yposition Zposition Zrotation Xrotation Yrotation 
								End Site
								{
									OFFSET 0.0 0.0 0.0
								}
							}
						}
					}
				}
			}
		}
		JOINT UpperLeg_L
		{
			OFFSET -2.19248 -6.46944 0.0
			CHANNELS 6 Xposition Yposition Zposition Zrotation Xrotation Yrotation 
			JOINT LowerLeg_L
			{
				OFFSET 39.0811 0.0 -1.23785e-05
				CHANNELS 6 Xposition Yposition Zposition Zrotation Xrotation Yrotation 
				JOINT Foot_L
				{
					OFFSET 40.9854 0.0 -1.26872e-05
					CHANNELS 6 Xposition Yposition Zposition Zrotation Xrotation Yrotation 
					JOINT Toes_L
					{
						OFFSET 11.7543 0.0 0.0
						CHANNELS 6 Xposition Yposition Zposition Zrotation Xrotation Yrotation 
						End Site
						{
							OFFSET 0.0 0.0 0.0
						}
					}
				}
			}
		}
		JOINT UpperLeg_R
		{
			OFFSET -2.19251 6.46944 0.0
			CHANNELS 6 Xposition Yposition Zposition Zrotation Xrotation Yrotation 
			JOINT LowerLeg_R
			{
				OFFSET -39.0811 -0.00228153 -0.0401928
				CHANNELS 6 Xposition Yposition Zposition Zrotation Xrotation Yrotation 
				JOINT Foot_R
				{
					OFFSET -40.9854 0.0 0.0
					CHANNELS 6 Xposition Yposition Zposition Zrotation Xrotation Yrotation 
					JOINT Toes_R
					{
						OFFSET -11.7543 0.0 0.0
						CHANNELS 6 Xposition Yposition Zposition Zrotation Xrotation Yrotation 
						End Site
						{
							OFFSET 0.0 0.0 0.0
						}
					}
				}
			}
		}
	}
}
MOTION
Frames:	7
Frame Time:	0.0333333
0.000000 0.000000 0.000000 0.000000 0.000000 -0.000000 -1.834700 88.320000 -12.391200 88.432800 -1.045840 0.691630 15.735700 0.000005 -0.000001 70.971800 83.388800 -70.241100 8.984550 -0.406207 -0.000000 4.772810 -4.321980 1.640460 16.377300 -0.000001 -0.000001 -3.505190 -2.615860 0.705715 6.456720 -0.000001 -0.000000 -3.801780 -0.245226 0.822838 12.994200 -0.242716 4.980390 -90.267000 1.072820 -76.022100 5.348090 -0.000007 -0.000001 -61.100500 20.418700 -34.024600 24.328600 0.000019 0.000005 8.323310 -0.483525 -93.302200 22.291600 -0.000001 0.000005 21.063600 5.526010 -7.622420 12.994500 -0.242716 -4.980390 88.878300 7.348640 -81.296800 -5.348130 -0.000001 -0.000004 -70.102800 31.805900 16.152900 -24.328900 0.000322 -0.000009 -20.432800 -9.864850 -65.301900 -22.291500 -0.000108 -0.000004 22.526500 5.628520 -13.226800 -2.192480 -6.469440 -0.000000 -179.816000 -4.082130 -2.541800 39.081100 -0.000007 -0.000012 0.010929 -0.014211 37.557100 40.985400 -0.000006 -0.000013 3.336740 -4.421950 -77.782300 11.754300 -0.000000 0.000003 -1.029320 -1.227760 -19.111900 -2.192510 6.469440 -0.000001 -174.483000 14.947700 146.532000 -39.081100 -0.002282 -0.040193 0.000935 0.002663 41.302900 -40.985400 0.000008 0.000006 0.889187 0.913989 -61.346000 -11.754300 -0.000006 -0.000006 -0.016800 -0.148869 -22.649900
0.000000 0.000000 0.000000 0.000000 0.000000 -0.000000 -2.146640 89.124800 -6.550360 88.765600 -1.310510 -0.033452 15.735700 0.000005 -0.000001 66.653400 83.678200 -65.816100 8.984550 -0.406207 -0.000000 3.892230 -5.031870 1.844750 16.377300 -0.000001 -0.000001 -3.456250 -2.303730 0.915303 6.456720 -0.000001 -0.000000 -3.370610 0.479695 0.669730 12.994200 -0.242716 4.980390 -90.251300 1.020120 -76.161300 5.348090 -0.000007 -0.000001 -61.702400 22.235100 -29.917300 24.328600 0.000019 0.000005 6.368760 -0.337833 -93.021700 22.291600 -0.000001 0.000005 20.754100 5.531020 -7.840560 12.994500 -0.242716 -4.980390 88.911000 7.265420 -81.452100 -5.348130 -0.000001 -0.000004 -70.903300 30.841300 16.452000 -24.328900 0.000322 -0.000009 -21.168700 -10.090000 -65.656000 -22.291500 -0.000108 -0.000004 22.600800 5.631360 -13.438100 -2.192480 -6.469440 -0.000000 -179.434000 -4.299630 -1.216070 39.081100 -0.000007 -0.000012 0.012280 -0.015063 39.184600 40.985400 -0.000006 -0.000013 2.387310 -2.584230 -70.674200 11.754300 -0.000000 0.000003 -0.045595 -0.281700 -28.165900 -2.192510 6.469440 -0.000001 -172.730000 18.607200 148.721000 -39.081100 -0.002282 -0.040193 -0.000288 0.005984 30.942700 -40.985400 0.000008 0.000006 -1.306140 5.085630 -62.313100 -11.754300 -0.000006 -0.000006 -0.018997 -0.161668 -23.176400
0.000000 0.000000 0.000000 0.000000 0.000000 -0.000000 -2.602920 89.478000 -0.541474 89.670700 -1.406790 0.057508 15.735700 0.000005 -0.000001 64.678100 83.840600 -64.085100 8.984550 -0.406207 -0.000000 3.409240 -5.285160 1.342820 16.377300 -0.000001 -0.000001 -3.129760 -2.234770 1.064960 6.456720 -0.000001 -0.000000 -3.187520 0.668852 1.005410 12.994200 -0.242716 4.980390 -90.405200 1.635430 -76.081600 5.348090 -0.000007 -0.000001 -61.631100 24.866300 -25.265100 24.328600 0.000019 0.000005 5.498810 0.061220 -89.363400 22.291600 -0.000001 0.000005 20.559700 5.527960 -7.705280 12.994500 -0.242716 -4.980390 88.766600 8.061510 -81.271600 -5.348130 -0.000001 -0.000004 -70.791200 30.193400 14.560300 -24.328900 0.000322 -0.000009 -21.031900 -9.915840 -65.873300 -22.291500 -0.000108 -0.000004 22.852100 5.634870 -13.709600 -2.192480 -6.469440 -0.000000 -178.852000 -5.915570 -2.407210 39.081100 -0.000007 -0.000012 0.028805 -0.028254 45.550000 40.985400 -0.000006 -0.000013 2.404590 0.926481 -60.773700 11.754300 -0.000000 0.000003 -0.106456 -0.460312 -35.821700 -2.192510 6.469440 -0.000001 -172.811000 19.483600 150.260000 -39.081100 -0.002282 -0.040193 0.050256 -0.079506 30.565900 -40.985400 0.000008 0.000006 4.996070 4.733300 -61.989400 -11.754300 -0.000006 -0.000006 -0.020963 -0.172565 -23.625300
0.000000 0.000000 0.000000 0.000000 0.000000 -0.000000 -3.097770 89.032700 5.576380 90.097400 -1.757690 1.453660 15.735700 0.000005 -0.000001 68.809400 83.676700 -68.262600 8.984550 -0.406207 -0.000000 4.058330 -4.582320 1.255230 16.377300 -0.000001 -0.000001 -3.023170 -2.446890 1.019560 6.456720 -0.000001 -0.000000 -3.357070 0.321084 0.608632 12.994200 -0.242716 4.980390 -90.579300 2.330370 -76.035700 5.348090 -0.000007 -0.000001 -62.226100 27.486600 -20.480900 24.328600 0.000019 0.000005 5.953040 0.729756 -83.038100 22.291600 -0.000001 0.000005 18.819900 5.514400 -7.124610 12.994500 -0.242716 -4.980390 88.665800 8.665170 -81.212000 -5.348130 -0.000001 -0.000004 -69.787500 29.010300 10.545600 -24.328900 0.000322 -0.000009 -19.783800 -8.526150 -67.598800 -22.291500 -0.000108 -0.000004 22.676900 5.632200 -13.503200 -2.192480 -6.469440 -0.000000 -177.996000 -5.899560 -5.521640 39.081100 -0.000007 -0.000012 0.059032 -0.039649 56.109500 40.985400 -0.000006 -0.000013 1.766430 3.243600 -50.261600 11.754300 -0.000000 0.000003 -0.043433 -0.273526 -27.823200 -2.192510 6.469440 -0.000001 -175.056000 16.501400 152.957000 -39.081100 -0.002282 -0.040193 0.023195 -0.027996 35.411900 -40.985400 0.000008 0.000006 6.299670 1.236180 -59.781600 -11.754300 -0.000006 -0.000006 -0.018423 -0.158393 -23.041600
0.000000 0.000000 0.000000 0.000000 0.000000 -0.000000 -3.475060 87.930800 11.168200 89.611900 -3.067720 2.610130 15.735700 0.000005 -0.000001 77.156200 83.469300 -76.306000 8.984550 -0.406207 -0.000000 4.995910 -2.918170 1.826110 16.377300 -0.000001 -0.000001 -3.543300 -2.448630 0.941826 6.456720 -0.000001 -0.000000 -3.622100 -0.209524 0.032208 12.994200 -0.242716 4.980390 -90.776400 3.180020 -76.272000 5.348090 -0.000007 -0.000001 -63.257900 29.297200 -15.186500 24.328600 0.000019 0.000005 7.179480 1.890380 -75.333000 22.291600 -0.000001 0.000005 16.030200 5.502990 -6.653270 12.994500 -0.242716 -4.980390 88.646000 9.485150 -81.837400 -5.348130 -0.000001 -0.000004 -66.744300 27.834600 3.955270 -24.328900 0.000322 -0.000009 -20.014800 -7.012960 -71.468200 -22.291500 -0.000108 -0.000004 23.406100 5.631900 -13.478900 -2.192480 -6.469440 -0.000000 -177.001000 -5.476120 -10.300900 39.081100 -0.000007 -0.000012 0.089032 -0.037130 67.358500 40.985400 -0.000006 -0.000013 -0.374908 1.885100 -46.318500 11.754300 -0.000000 0.000003 -0.004117 -0.052657 -18.718800 -2.192510 6.469440 -0.000001 -176.105000 12.061000 154.503000 -39.081100 -0.002282 -0.040193 -0.188829 0.207130 42.844100 -40.985400 0.000008 0.000006 5.459140 -2.008490 -65.819300 -11.754300 -0.000006 -0.000006 -0.009308 -0.098390 -20.581100
0.000000 0.000000 0.000000 0.000000 0.000000 -0.000000 -3.662090 86.810600 16.193200 89.190200 -5.371500 3.861340 15.735700 0.000005 -0.000001 85.751600 82.802000 -84.714400 8.984550 -0.406207 -0.000000 6.601810 -1.073680 2.133970 16.377300 -0.000001 -0.000001 -4.208120 -1.940310 1.250670 6.456720 -0.000001 -0.000000 -4.726740 -0.430265 -0.160157 12.994200 -0.242716 4.980390 -90.857600 3.501720 -76.230100 5.348090 -0.000007 -0.000001 -65.389900 29.991100 -9.342280 24.328600 0.000019 0.000005 8.298680 3.778800 -65.684900 22.291600 -0.000001 0.000005 15.705900 5.511430 -6.996500 12.994500 -0.242716 -4.980390 88.802500 10.319800 -83.344500 -5.348130 -0.000001 -0.000004 -61.904600 26.569800 -5.956180 -24.328900 0.000322 -0.000009 -20.666000 -5.231730 -76.408900 -22.291500 -0.000108 -0.000004 25.773100 5.631110 -13.426000 -2.192480 -6.469440 -0.000000 -176.853000 -5.697290 -15.299900 39.081100 -0.000007 -0.000012 0.068907 -0.016514 76.517600 40.985400 -0.000006 -0.000013 1.748580 -0.946975 -51.711500 11.754300 -0.000000 0.000003 -0.003962 -0.051049 -18.653300 -2.192510 6.469440 -0.000001 -176.211000 9.724080 156.802000 -39.081100 -0.002282 -0.040193 -0.097912 0.090143 48.297400 -40.985400 0.000008 0.000006 7.419300 -3.117150 -71.977900 -11.754300 -0.000006 -0.000006 -0.004411 -0.055644 -18.836800
0.000000 0.000000 0.000000 0.000000 0.000000 -0.000000 -3.871900 86.022100 20.782000 88.814700 -6.008980 3.826190 15.735700 0.000005 -0.000001 89.455000 82.491100 -88.219900 8.984550 -0.406207 -0.000000 7.253990 -0.147819 2.477010 16.377300 -0.000001 -0.000001 -4.618890 -1.891220 1.469220 6.456720 -0.000001 -0.000000 -5.307500 -0.586399 -0.467022 12.994200 -0.242716 4.980390 -90.966100 3.943310 -76.222800 5.348090 -0.000007 -0.000001 -67.256600 30.715600 -2.975730 24.328600 0.000019 0.000005 7.708570 5.260540 -55.889400 22.291600 -0.000001 0.000005 17.585900 5.525000 -7.577160 12.994500 -0.242716 -4.980390 88.944400 10.579200 -84.269000 -5.348130 -0.000001 -0.000004 -57.466800 24.123700 -17.020700 -24.328900 0.000322 -0.000009 -20.885700 -3.285810 -81.456400 -22.291500 -0.000108 -0.000004 26.990800 5.627680 -13.164600 -2.192480 -6.469440 -0.000000 -176.676000 -4.851710 -22.053600 39.081100 -0.000007 -0.000012 0.032968 -0.005045 81.286200 40.985400 -0.000006 -0.000013 4.213870 -2.082490 -55.445200 11.754300 -0.000000 0.000003 -0.003875 -0.050138 -18.616200 -2.192510 6.469440 -0.000001 -176.588000 11.304000 159.004000 -39.081100 -0.002282 -0.040193 -0.039276 0.034338 51.076000 -40.985400 0.000008 0.000006 8.174810 -1.794010 -77.036700 -11.754300 -0.000006 -0.000006 -0.001920 -0.027712 -17.699900
